PathFileType	4	(X/Y/Z)	C:/Users/beibeiliu/ov580/test_trc/User2\sequence.12_training_dense_left.trc
DataRate	CameraRate	NumFrames	NumMarkers	Units	OrigDataRate	OrigDataStartFrame	OrigNumFrames
120	120	16	19	mm	120	29	57
Frame#	Time	ThumbCMC			ThumbMCP			ThumbIP			ThumbTip			IndexMCP			IndexPIP			IndexTip			MiddleMCP			MiddlePIP			MiddleTip			RingMCP			RingPIP			RingTip			PinkyMCP			PinkyPIP			PinkyTip			BackHand1			BackHand2			BackHand3	
		X0	Y0	Z0	X1	Y1	Z1	X2	Y2	Z2	X3	Y3	Z3	X4	Y4	Z4	X5	Y5	Z5	X6	Y6	Z6	X7	Y7	Z7	X8	Y8	Z8	X9	Y9	Z9	X10	Y10	Z10	X11	Y11	Z11	X12	Y12	Z12	X13	Y13	Z13	X14	Y14	Z14	X15	Y15	Z15	X16	Y16	Z16	X17	Y17	Z17	X18	Y18	Z18	
28	0.233333	-260.293	40.1348	-11.4885	-247.779	37.4574	-44.1024	-252.629	31.7023	-81.2448	-273.077	14.2923	-92.4152	-324.573	71.9902	-49.9121	-335.775	86.2941	-70.7813	-348.159	99.0147	-98.6391	-343.688	51.5289	-55.1389	-355.15	57.2672	-93.4577	-344.298	47.167	-123.361	-346.375	26.1996	-66.6946	-334.409	24.4294	-96.5324	-303.028	11.7626	-94.3874	-346.647	0.413724	-47.3652	-360.572	4.33843	-78.2644	-353.045	6.61758	-106.838	-329.803	7.95786	-9.84917	-312.278	-1.68261	22.6604	-304.693	34.2717	8.06095	
29	0.241667	-255.35	39.781	-6.68199	-245.598	39.9158	-43.3985	-243.883	37.9435	-80.5207	-270.046	19.7863	-94.8364	-315.638	78.2395	-48.0043	-323.488	98.3578	-69.1749	-331.165	114.464	-94.5546	-340.981	60.8163	-56.1542	-345.707	68.6753	-92.5062	-325.475	57.6873	-124.957	-340.679	37.5871	-65.847	-330.767	34.959	-95.6743	-300.792	17.0008	-95.0979	-342.752	11.757	-50.4486	-355.356	17.452	-82.1433	-341.206	18.3504	-108.664	-322.531	17.8434	-7.665	-312.092	5.9361	18.66	-299.941	40.9162	8.6602	
30	0.25	-254.798	42.3811	-7.69771	-237.014	44.9471	-43.1984	-239.333	37.4793	-75.0007	-264.121	22.8588	-89.5213	-304.389	89.6799	-50.5521	-312.804	102.426	-69.9278	-320.677	120.07	-97.1335	-330.364	66.2346	-57.0691	-336.275	75.671	-95.1847	-317.97	63.3125	-124.123	-333.613	45.0249	-70.2955	-320.635	38.0351	-99.8346	-288.398	24.4268	-92.6663	-339.241	17.5563	-55.1083	-348.106	22.4388	-83.6203	-334.912	24.5531	-115.321	-324.458	22.5649	-12.4926	-312.297	9.85586	17.749	-298.087	45.1695	6.31299	
31	0.258333	-240.717	43.3566	-2.3004	-219.861	42.0384	-38.2798	-224.353	36.071	-70.4289	-249.55	25.667	-89.6003	-283.012	95.7634	-52.0537	-282.815	113.727	-70.3903	-286.382	131.002	-94.7119	-309.462	83.6786	-61.3498	-311.874	92.7607	-96.1492	-299.4	85.5806	-129.837	-316.133	54.5362	-71.3889	-303.735	51.1557	-98.9676	-274.723	27.7238	-91.5376	-327.642	28.6712	-55.4809	-338.469	37.1791	-86.6702	-332.764	40.2789	-111.605	-312.7	36.4956	-12.6242	-303.962	22.7661	17.9261	-281.06	56.1507	5.24618	
32	0.266667	-224.99	41.1694	0.37694	-204.823	33.9505	-31.1626	-207.17	26.7296	-67.7429	-236.699	21.8501	-80.6916	-249.742	95.8428	-48.9646	-249.113	114.787	-72.9943	-249.842	131.685	-95.5828	-281.543	89.3891	-60.8902	-283.666	103.85	-93.6581	-277.092	103.566	-128.365	-291.603	67.2733	-71.5941	-282.837	56.48	-100.046	-260.987	28.2547	-90.7383	-313.612	43.6621	-57.8303	-318.069	54.1389	-85.0793	-320.41	58.3114	-112.827	-297.569	50.612	-13.2684	-292.531	36.5638	19.0573	-266.843	58.7552	6.07687	
33	0.275	-208.395	36.2249	4.93866	-190.516	24.8646	-28.9725	-198.371	17.1675	-66.9849	-224.656	14.5242	-76.341	-229.083	89.5983	-53.4398	-223.809	106.784	-75.3719	-219.125	123.522	-97.635	-255.372	90.0711	-65.391	-256.388	101.475	-94.9164	-253.42	106.009	-126.003	-269.835	66.3999	-75.678	-262.311	51.1311	-99.8256	-246.374	19.105	-86.6744	-298.431	50.2488	-61.9288	-300.413	56.1332	-86.6406	-308.993	62.5181	-107.629	-277.594	57.2136	-13.3868	-279.623	46.449	16.1725	-249.197	62.9953	5.75026	
34	0.283333	-199.609	28.741	5.83972	-179.104	13.1271	-26.025	-188.106	5.02373	-60.3708	-216.827	5.33928	-72.9422	-210.916	80.4374	-53.3109	-204.527	98.5846	-79.7894	-201.163	111.478	-97.436	-238.201	82.9925	-68.9207	-238.232	92.6263	-100.342	-234.573	98.5468	-132.519	-257.652	57.6441	-76.9754	-243.992	39.0371	-101.729	-233.551	7.12967	-85.4126	-283.098	42.1464	-59.6179	-287.368	50.2167	-88.6846	-292.052	58.6047	-109.811	-264.46	53.388	-14.8682	-268.881	42.7559	18.6106	-236.905	57.753	4.00144	
35	0.291667	-190.157	20.594	7.85605	-172.936	6.12134	-26.5256	-180.748	-4.43321	-57.6027	-208.373	-5.80137	-70.2556	-199.469	73.4333	-54.6741	-189.109	89.9303	-79.3612	-186.949	101.433	-98.8701	-230.924	72.8344	-72.4297	-224.279	82.2536	-102.392	-220.51	88.7647	-132.613	-247.218	46.2979	-79.9061	-233.599	25.0063	-103.016	-222.047	-2.67282	-86.8323	-273.699	36.9512	-66.1415	-276.457	41.0441	-91.6502	-282.401	45.7964	-110.323	-258.263	47.3314	-19.0879	-262.664	39.068	14.9888	-227.515	49.4478	3.78076	
36	0.3	-182.532	18.1549	9.74244	-164.91	0.763571	-21.3327	-168.926	-13.4587	-52.0815	-194.947	-17.7641	-72.3815	-195.249	63.7137	-58.9366	-187.11	76.6206	-79.3782	-181.863	90.2717	-103.233	-220.882	60.9216	-72.1193	-214.483	69.208	-101.67	-214.361	72.0782	-134.401	-237.045	33.5141	-79.0103	-223.98	14.8495	-101.475	-207.71	-16.7317	-81.9877	-260.838	24.5282	-67.7211	-262.561	26.6386	-92.5211	-270.032	30.839	-116.31	-252.935	35.7169	-18.4902	-255.614	33.471	12.441	-221.608	44.5179	2.12413	
37	0.308333	-177.104	24.2758	10.8852	-153.529	5.71378	-15.0186	-151.221	-13.9006	-41.3827	-172.181	-25.8077	-63.7304	-189.448	59.7351	-64.8939	-181.505	70.9019	-86.0824	-174.56	82.1119	-108.814	-215.57	46.4701	-74.8017	-208.853	51.3915	-107.585	-204.782	49.8212	-138.684	-226.435	17.79	-79.5464	-203.964	-1.97422	-98.2137	-189.31	-29.7197	-76.6892	-249.434	5.40765	-62.4594	-249.411	3.3951	-90.7872	-248.726	7.79163	-112.8	-241.696	28.0651	-17.5086	-252.993	25.8196	11.3671	-214.714	46.1363	-0.543776	
38	0.316667	-179.361	38.6323	13.1987	-145.377	21.3546	-4.81588	-134.468	-0.602067	-31.7736	-149.953	-19.6396	-48.4195	-191.485	60.3499	-62.558	-181.634	72.3059	-88.5159	-180.57	77.9676	-114.499	-209.739	44.0767	-76.0463	-204.05	41.659	-110.459	-195.794	35.6288	-143.191	-212.414	12.2507	-78.5249	-189.777	-5.7789	-93.1851	-167.358	-23.8129	-71.8439	-233.43	-4.27213	-63.6746	-232.473	-11.0121	-88.0873	-232.735	-11.8351	-115.512	-239.95	20.4798	-19.7524	-247.203	25.793	10.0518	-219.278	51.1358	-1.82209	
39	0.325	-188.067	56.785	14.4588	-154.404	44.8276	0.84294	-130.299	26.2626	-25.4611	-135.616	2.3545	-46.5355	-199.975	71.7548	-68.2806	-194.083	79.8127	-88.1118	-189.725	87.0549	-117.316	-214.947	44.7482	-80.3134	-203.452	43.5436	-111.803	-192.293	36.8643	-137.315	-204.757	18.0441	-74.6297	-175.858	4.60287	-85.3885	-150.223	-5.19258	-60.4348	-222.093	-2.68524	-62.7447	-215.489	-7.80699	-86.7099	-210.477	-10.383	-112.062	-239.032	25.6333	-19.9151	-249.575	23.4201	9.6215	-228.439	57.9478	-0.444534	
40	0.333333	-199.512	81.7561	14.3019	-164.01	76.0783	-0.843274	-135.384	67.518	-21.829	-122.721	47.5028	-40.3307	-214.881	80.6666	-70.1216	-208.889	90.1525	-92.598	-205.583	91.9975	-118.561	-213.565	51.1441	-78.8044	-199.904	51.7578	-107.913	-180.3	53.5841	-134.381	-193.491	28.1742	-70.774	-161.742	31.0616	-77.8144	-138.643	38.6051	-47.5082	-203.884	10.0241	-55.4167	-192.35	5.19172	-79.5328	-187.876	8.06142	-103.683	-232.921	23.4023	-22.0999	-245.966	23.6398	10.6097	-240.963	59.4018	-3.38956	
41	0.341667	-218.652	90.306	9.47486	-182.58	96.4346	-1.75885	-149.285	101.043	-26.3488	-130.667	90.0206	-41.3585	-226.597	77.942	-70.9752	-223.801	84.0523	-95.4939	-217.735	85.3626	-122.73	-207.672	50.8513	-80.778	-192.148	56.745	-108.273	-169.149	60.1873	-131.59	-181.106	40.1783	-67.6196	-155.227	60.2439	-71.9883	-143.553	78.3648	-42.4793	-181.072	18.9114	-53.5833	-169.022	23.4341	-75.8962	-161.858	22.8918	-100.818	-220.046	24.053	-19.4743	-233.623	21.7688	10.9095	-244.732	53.8934	-5.06557	
42	0.35	-227.966	81.1779	-0.17906	-198.981	103.357	-14.3839	-169.154	108.132	-36.8222	-148.578	109.726	-48.7539	-233.869	58.9157	-76.206	-230.331	61.9991	-105.933	-226.656	62.7101	-134.468	-201.682	41.3259	-84.0792	-185.476	47.8891	-110.693	-167.165	62.6458	-136.472	-174.162	44.1798	-67.4675	-152.943	71.0646	-70.1881	-156.246	93.844	-43.2101	-166.765	25.566	-52.0256	-156.905	31.9393	-74.8407	-150.877	32.3291	-97.1368	-208.172	18.3423	-16.3207	-218.461	14.2846	13.8623	-240.172	37.6786	-7.7066	
43	0.358333	-238.011	68.7718	-6.23275	-211.466	89.1355	-26.1354	-189.057	102.823	-48.3476	-166.266	107.998	-67.5116	-235.977	32.8323	-81.6173	-241.063	35.1142	-106.039	-237.295	32.1246	-133.01	-204.672	23.3241	-82.982	-193.672	32.4499	-117.224	-176.27	44.5876	-139.534	-178.596	37.7988	-75.15	-165.893	64.2921	-79.957	-169.625	88.5192	-50.1315	-170.118	21.2158	-58.6829	-159.528	25.8018	-79.0144	-154.686	25.5019	-99.6599	-205.278	9.10059	-20.2951	-210.023	4.77735	14.6609	-241.077	23.0143	-8.31583	
